<svg xmlns="http://www.w3.org/2000/svg" viewBox="0 0 1024 1024" role="img" aria-labelledby="title desc">
  <title id="title">SlugSwap Option E Icon</title>
  <desc id="desc">Abstract monoline banana slug icon with neon accent.</desc>
  <defs>
    <linearGradient id="bg" x1="0%" y1="0%" x2="100%" y2="100%">
      <stop offset="0%" stop-color="#0b1125" />
      <stop offset="100%" stop-color="#191032" />
    </linearGradient>
    <linearGradient id="slugLine" x1="0%" y1="0%" x2="100%" y2="100%">
      <stop offset="0%" stop-color="#e7ff5f" />
      <stop offset="100%" stop-color="#b4d93a" />
    </linearGradient>
  </defs>
  <rect width="1024" height="1024" rx="230" fill="url(#bg)" />
  <path d="M230 612c0-150 121-271 271-271h235c77 0 140 63 140 140v0c0 77-63 140-140 140H507c-35 0-64 29-64 64v49" fill="none" stroke="url(#slugLine)" stroke-width="88" stroke-linecap="round" stroke-linejoin="round" />
  <path d="M788 431c15-44 50-80 90-85" fill="none" stroke="#d8f25a" stroke-width="26" stroke-linecap="round" />
  <path d="M742 417c8-44 32-84 66-103" fill="none" stroke="#d8f25a" stroke-width="22" stroke-linecap="round" />
  <circle cx="883" cy="345" r="13" fill="#e7ff5f" />
  <circle cx="811" cy="315" r="11" fill="#e7ff5f" />
  <path d="M438 729h276" stroke="#2fd7ff" stroke-width="34" stroke-linecap="round" />
</svg>

